<svg width="250" height="250" viewBox="0 0 250 250" fill="none" xmlns="http://www.w3.org/2000/svg">
<circle cx="125" cy="125" r="121" stroke="white" stroke-width="8"/>
<path d="M155.303 100.06C154.498 97.0767 153.314 94.4489 151.752 92.1761C150.189 89.8561 148.272 87.8911 145.999 86.2812C143.726 84.6714 141.122 83.464 138.186 82.6591C135.251 81.8068 132.031 81.3807 128.527 81.3807C121.472 81.3807 115.364 83.0852 110.203 86.4943C105.09 89.9034 101.136 94.875 98.3427 101.409C95.5491 107.896 94.1523 115.779 94.1523 125.06C94.1523 134.387 95.5018 142.342 98.2006 148.923C100.9 155.505 104.806 160.524 109.919 163.98C115.033 167.437 121.236 169.165 128.527 169.165C134.967 169.165 140.412 168.123 144.863 166.04C149.361 163.909 152.77 160.902 155.09 157.02C157.41 153.137 158.57 148.568 158.57 143.312L165.104 144.094H129.735V118.455H192.448V137.702C192.448 150.723 189.678 161.873 184.138 171.153C178.646 180.434 171.07 187.56 161.411 192.531C151.799 197.503 140.743 199.989 128.243 199.989C114.37 199.989 102.178 196.982 91.6665 190.969C81.1552 184.955 72.9639 176.385 67.0927 165.259C61.2215 154.084 58.2859 140.827 58.2859 125.486C58.2859 113.554 60.0614 102.972 63.6126 93.7386C67.1637 84.4583 72.1116 76.5985 78.4563 70.1591C84.8484 63.7197 92.2347 58.8428 100.615 55.5284C109.043 52.214 118.111 50.5568 127.817 50.5568C136.245 50.5568 144.081 51.7642 151.326 54.179C158.617 56.5938 165.057 60.0028 170.644 64.4062C176.278 68.8097 180.847 74.0417 184.351 80.1023C187.855 86.1629 190.033 92.8153 190.885 100.06H155.303Z" fill="white"/>
</svg>
