<svg width="550" height="150" viewBox="0 0 783 268" fill="none" xmlns="http://www.w3.org/2000/svg">
<g filter="url(#filter0_dd_20_13)">
<path fill-rule="evenodd" clip-rule="evenodd" d="M269.291 168.317C251.674 216.003 205.807 250 152 250C82.9644 250 27 194.036 27 125C27 55.9644 82.9644 0 152 0C211.209 0 260.803 41.1662 273.722 96.4384C279.332 96.9065 284.258 98.3664 288.5 100.818C293.773 103.818 297.818 108.03 300.636 113.455C303.485 118.848 304.909 125.136 304.909 132.318C304.909 139.47 303.485 145.758 300.636 151.182C297.818 156.576 293.773 160.788 288.5 163.818C283.258 166.818 276.97 168.318 269.636 168.318C269.521 168.318 269.406 168.318 269.291 168.317ZM261.026 167.541C244.007 211.124 201.609 242 152 242C87.3827 242 35 189.617 35 125C35 60.3827 87.3827 8 152 8C206.767 8 252.745 45.629 265.49 96.4433C259.899 96.9167 254.978 98.375 250.727 100.818C245.485 103.818 241.439 108.03 238.591 113.455C235.773 118.848 234.364 125.136 234.364 132.318C234.364 139.47 235.773 145.758 238.591 151.182C241.439 156.576 245.485 160.788 250.727 163.818C253.808 165.571 257.241 166.812 261.026 167.541ZM182.303 100.06C181.498 97.0767 180.314 94.4489 178.752 92.1761C177.189 89.8561 175.272 87.8911 172.999 86.2812C170.726 84.6714 168.122 83.464 165.186 82.6591C162.251 81.8068 159.031 81.3807 155.527 81.3807C148.472 81.3807 142.364 83.0852 137.203 86.4943C132.09 89.9034 128.136 94.875 125.343 101.409C122.549 107.896 121.152 115.779 121.152 125.06C121.152 134.387 122.502 142.342 125.201 148.923C127.9 155.505 131.806 160.524 136.919 163.98C142.033 167.437 148.236 169.165 155.527 169.165C161.967 169.165 167.412 168.123 171.863 166.04C176.361 163.909 179.77 160.902 182.09 157.02C184.294 153.331 185.451 149.022 185.561 144.094H156.735V118.455H219.448V137.702C219.448 150.723 216.678 161.873 211.138 171.153C205.646 180.434 198.07 187.56 188.411 192.531C178.799 197.503 167.743 199.989 155.243 199.989C141.37 199.989 129.178 196.982 118.667 190.969C108.155 184.955 99.9639 176.385 94.0927 165.259C88.2215 154.084 85.2859 140.827 85.2859 125.486C85.2859 113.554 87.0614 102.972 90.6126 93.7386C94.1637 84.4583 99.1116 76.5985 105.456 70.1591C111.848 63.7197 119.235 58.8428 127.615 55.5284C136.043 52.214 145.111 50.5568 154.817 50.5568C163.245 50.5568 171.081 51.7642 178.326 54.179C185.617 56.5938 192.057 60.0028 197.644 64.4062C203.278 68.8097 207.847 74.0417 211.351 80.1023C214.855 86.1629 217.033 92.8153 217.885 100.06H182.303ZM269.773 151.545C272.439 151.545 274.697 150.727 276.545 149.091C278.394 147.455 279.803 145.182 280.773 142.273C281.773 139.364 282.273 136 282.273 132.182C282.273 128.303 281.773 124.909 280.773 122C279.803 119.091 278.394 116.818 276.545 115.182C274.697 113.545 272.439 112.727 269.773 112.727C267.015 112.727 264.682 113.545 262.773 115.182C260.894 116.818 259.455 119.091 258.455 122C257.485 124.909 257 128.303 257 132.182C257 136 257.485 139.364 258.455 142.273C259.455 145.182 260.894 147.455 262.773 149.091C264.682 150.727 267.015 151.545 269.773 151.545ZM377.25 118.5L356.841 119.045C356.629 117.591 356.053 116.303 355.114 115.182C354.174 114.03 352.947 113.136 351.432 112.5C349.947 111.833 348.22 111.5 346.25 111.5C343.674 111.5 341.477 112.015 339.659 113.045C337.871 114.076 336.992 115.47 337.023 117.227C336.992 118.591 337.538 119.773 338.659 120.773C339.811 121.773 341.856 122.576 344.795 123.182L358.25 125.727C365.22 127.061 370.402 129.273 373.795 132.364C377.22 135.455 378.947 139.545 378.977 144.636C378.947 149.424 377.523 153.591 374.705 157.136C371.917 160.682 368.098 163.439 363.25 165.409C358.402 167.348 352.856 168.318 346.614 168.318C336.644 168.318 328.78 166.273 323.023 162.182C317.295 158.061 314.023 152.545 313.205 145.636L335.159 145.091C335.644 147.636 336.902 149.576 338.932 150.909C340.962 152.242 343.553 152.909 346.705 152.909C349.553 152.909 351.871 152.379 353.659 151.318C355.447 150.258 356.356 148.848 356.386 147.091C356.356 145.515 355.659 144.258 354.295 143.318C352.932 142.348 350.795 141.591 347.886 141.045L335.705 138.727C328.705 137.455 323.492 135.106 320.068 131.682C316.644 128.227 314.947 123.833 314.977 118.5C314.947 113.833 316.189 109.848 318.705 106.545C321.22 103.212 324.795 100.667 329.432 98.9091C334.068 97.1515 339.538 96.2727 345.841 96.2727C355.295 96.2727 362.75 98.2576 368.205 102.227C373.659 106.167 376.674 111.591 377.25 118.5ZM450.875 118.5L430.466 119.045C430.254 117.591 429.678 116.303 428.739 115.182C427.799 114.03 426.572 113.136 425.057 112.5C423.572 111.833 421.845 111.5 419.875 111.5C417.299 111.5 415.102 112.015 413.284 113.045C411.496 114.076 410.617 115.47 410.648 117.227C410.617 118.591 411.163 119.773 412.284 120.773C413.436 121.773 415.481 122.576 418.42 123.182L431.875 125.727C438.845 127.061 444.027 129.273 447.42 132.364C450.845 135.455 452.572 139.545 452.602 144.636C452.572 149.424 451.148 153.591 448.33 157.136C445.542 160.682 441.723 163.439 436.875 165.409C432.027 167.348 426.481 168.318 420.239 168.318C410.269 168.318 402.405 166.273 396.648 162.182C390.92 158.061 387.648 152.545 386.83 145.636L408.784 145.091C409.269 147.636 410.527 149.576 412.557 150.909C414.587 152.242 417.178 152.909 420.33 152.909C423.178 152.909 425.496 152.379 427.284 151.318C429.072 150.258 429.981 148.848 430.011 147.091C429.981 145.515 429.284 144.258 427.92 143.318C426.557 142.348 424.42 141.591 421.511 141.045L409.33 138.727C402.33 137.455 397.117 135.106 393.693 131.682C390.269 128.227 388.572 123.833 388.602 118.5C388.572 113.833 389.814 109.848 392.33 106.545C394.845 103.212 398.42 100.667 403.057 98.9091C407.693 97.1515 413.163 96.2727 419.466 96.2727C428.92 96.2727 436.375 98.2576 441.83 102.227C447.284 106.167 450.299 111.591 450.875 118.5ZM483.227 168.182C478.773 168.182 474.818 167.439 471.364 165.955C467.939 164.439 465.227 162.167 463.227 159.136C461.258 156.076 460.273 152.242 460.273 147.636C460.273 143.758 460.955 140.485 462.318 137.818C463.682 135.152 465.561 132.985 467.955 131.318C470.348 129.652 473.106 128.394 476.227 127.545C479.348 126.667 482.682 126.076 486.227 125.773C490.197 125.409 493.394 125.03 495.818 124.636C498.242 124.212 500 123.621 501.091 122.864C502.212 122.076 502.773 120.97 502.773 119.545V119.318C502.773 116.985 501.97 115.182 500.364 113.909C498.758 112.636 496.591 112 493.864 112C490.924 112 488.561 112.636 486.773 113.909C484.985 115.182 483.848 116.939 483.364 119.182L462.864 118.455C463.47 114.212 465.03 110.424 467.545 107.091C470.091 103.727 473.576 101.091 478 99.1818C482.455 97.2424 487.803 96.2727 494.045 96.2727C498.5 96.2727 502.606 96.803 506.364 97.8636C510.121 98.8939 513.394 100.409 516.182 102.409C518.97 104.379 521.121 106.803 522.636 109.682C524.182 112.561 524.955 115.848 524.955 119.545V167H504.045V157.273H503.5C502.258 159.636 500.667 161.636 498.727 163.273C496.818 164.909 494.561 166.136 491.955 166.955C489.379 167.773 486.47 168.182 483.227 168.182ZM490.091 153.636C492.485 153.636 494.636 153.152 496.545 152.182C498.485 151.212 500.03 149.879 501.182 148.182C502.333 146.455 502.909 144.455 502.909 142.182V135.545C502.273 135.879 501.5 136.182 500.591 136.455C499.712 136.727 498.742 136.985 497.682 137.227C496.621 137.47 495.53 137.682 494.409 137.864C493.288 138.045 492.212 138.212 491.182 138.364C489.091 138.697 487.303 139.212 485.818 139.909C484.364 140.606 483.242 141.515 482.455 142.636C481.697 143.727 481.318 145.03 481.318 146.545C481.318 148.848 482.136 150.606 483.773 151.818C485.439 153.03 487.545 153.636 490.091 153.636ZM538.545 167V97.1818H559.682V110H560.455C561.909 105.758 564.364 102.409 567.818 99.9545C571.273 97.5 575.394 96.2727 580.182 96.2727C585.03 96.2727 589.182 97.5152 592.636 100C596.091 102.485 598.288 105.818 599.227 110H599.955C601.258 105.848 603.803 102.53 607.591 100.045C611.379 97.5303 615.849 96.2727 621 96.2727C627.606 96.2727 632.97 98.3939 637.091 102.636C641.212 106.848 643.273 112.636 643.273 120V167H621.045V125.091C621.045 121.606 620.151 118.955 618.364 117.136C616.576 115.288 614.258 114.364 611.409 114.364C608.349 114.364 605.939 115.364 604.182 117.364C602.455 119.333 601.591 121.985 601.591 125.318V167H580.227V124.864C580.227 121.621 579.349 119.061 577.591 117.182C575.833 115.303 573.515 114.364 570.636 114.364C568.697 114.364 566.985 114.833 565.5 115.773C564.015 116.682 562.849 117.985 562 119.682C561.182 121.379 560.773 123.379 560.773 125.682V167H538.545ZM689.682 168.318C682.379 168.318 676.076 166.879 670.773 164C665.5 161.091 661.439 156.955 658.591 151.591C655.773 146.197 654.364 139.788 654.364 132.364C654.364 125.152 655.788 118.848 658.636 113.455C661.485 108.03 665.5 103.818 670.682 100.818C675.864 97.7879 681.97 96.2727 689 96.2727C693.97 96.2727 698.515 97.0455 702.636 98.5909C706.758 100.136 710.318 102.424 713.318 105.455C716.318 108.485 718.651 112.227 720.318 116.682C721.985 121.106 722.818 126.182 722.818 131.909V137.455H676.273V138.045C676.273 140.894 676.833 143.394 677.955 145.545C679.076 147.667 680.667 149.318 682.727 150.5C684.788 151.682 687.242 152.273 690.091 152.273C692.061 152.273 693.849 152 695.455 151.455C697.061 150.909 698.439 150.106 699.591 149.045C700.742 147.985 701.606 146.682 702.182 145.136L722.591 145.727C721.742 150.303 719.879 154.288 717 157.682C714.151 161.045 710.409 163.667 705.773 165.545C701.136 167.394 695.773 168.318 689.682 168.318ZM678.091 118.5C676.998 120.283 676.396 122.298 676.286 124.545H702.136C702.106 122.182 701.545 120.076 700.455 118.227C699.364 116.379 697.864 114.939 695.955 113.909C694.076 112.848 691.909 112.318 689.455 112.318C686.97 112.318 684.742 112.879 682.773 114C680.803 115.091 679.242 116.591 678.091 118.5ZM734.17 167V97.1818H755.761V109.909H756.489C757.761 105.303 759.837 101.879 762.716 99.6364C765.595 97.3636 768.943 96.2273 772.761 96.2273C773.792 96.2273 774.852 96.303 775.943 96.4545C777.034 96.5758 778.049 96.7727 778.989 97.0455V116.364C777.928 116 776.534 115.712 774.807 115.5C773.11 115.288 771.595 115.182 770.261 115.182C767.625 115.182 765.246 115.773 763.125 116.955C761.034 118.106 759.383 119.727 758.17 121.818C756.989 123.879 756.398 126.303 756.398 129.091V167H734.17Z" fill="#F1E5D1"/>
</g>
<defs>
<filter id="filter0_dd_20_13" x="0" y="0" width="782.989" height="268" filterUnits="userSpaceOnUse" color-interpolation-filters="sRGB">
<feFlood flood-opacity="0" result="BackgroundImageFix"/>
<feColorMatrix in="SourceAlpha" type="matrix" values="0 0 0 0 0 0 0 0 0 0 0 0 0 0 0 0 0 0 127 0" result="hardAlpha"/>
<feOffset dx="-27" dy="18"/>
<feComposite in2="hardAlpha" operator="out"/>
<feColorMatrix type="matrix" values="0 0 0 0 0 0 0 0 0 0 0 0 0 0 0 0 0 0 0.25 0"/>
<feBlend mode="normal" in2="BackgroundImageFix" result="effect1_dropShadow_20_13"/>
<feColorMatrix in="SourceAlpha" type="matrix" values="0 0 0 0 0 0 0 0 0 0 0 0 0 0 0 0 0 0 127 0" result="hardAlpha"/>
<feOffset dy="4"/>
<feGaussianBlur stdDeviation="2"/>
<feComposite in2="hardAlpha" operator="out"/>
<feColorMatrix type="matrix" values="0 0 0 0 0 0 0 0 0 0 0 0 0 0 0 0 0 0 0.25 0"/>
<feBlend mode="normal" in2="effect1_dropShadow_20_13" result="effect2_dropShadow_20_13"/>
<feBlend mode="normal" in="SourceGraphic" in2="effect2_dropShadow_20_13" result="shape"/>
</filter>
</defs>
</svg>
