<svg width="550" height="150" viewBox="0 0 752 250" fill="none" xmlns="http://www.w3.org/2000/svg">
<path d="M155.303 100.06C154.498 97.0767 153.314 94.4489 151.752 92.1761C150.189 89.8561 148.272 87.8911 145.999 86.2812C143.726 84.6714 141.122 83.464 138.186 82.6591C135.251 81.8068 132.031 81.3807 128.527 81.3807C121.472 81.3807 115.364 83.0852 110.203 86.4943C105.09 89.9034 101.136 94.875 98.3427 101.409C95.5491 107.896 94.1523 115.779 94.1523 125.06C94.1523 134.387 95.5018 142.342 98.2006 148.923C100.9 155.505 104.806 160.524 109.919 163.98C115.033 167.437 121.236 169.165 128.527 169.165C134.967 169.165 140.412 168.123 144.863 166.04C149.361 163.909 152.77 160.902 155.09 157.02C157.41 153.137 158.57 148.568 158.57 143.312L165.104 144.094H129.735V118.455H192.448V137.702C192.448 150.723 189.678 161.873 184.138 171.153C178.646 180.434 171.07 187.56 161.411 192.531C151.799 197.503 140.743 199.989 128.243 199.989C114.37 199.989 102.178 196.982 91.6665 190.969C81.1552 184.955 72.9639 176.385 67.0927 165.259C61.2215 154.084 58.2859 140.827 58.2859 125.486C58.2859 113.554 60.0614 102.972 63.6126 93.7386C67.1637 84.4583 72.1116 76.5985 78.4563 70.1591C84.8484 63.7197 92.2347 58.8428 100.615 55.5284C109.043 52.214 118.111 50.5568 127.817 50.5568C136.245 50.5568 144.081 51.7642 151.326 54.179C158.617 56.5938 165.057 60.0028 170.644 64.4062C176.278 68.8097 180.847 74.0417 184.351 80.1023C187.855 86.1629 190.033 92.8153 190.885 100.06H155.303Z" fill="white"/>
<path d="M242.636 168.318C235.303 168.318 229 166.818 223.727 163.818C218.485 160.788 214.439 156.576 211.591 151.182C208.773 145.758 207.364 139.47 207.364 132.318C207.364 125.136 208.773 118.848 211.591 113.455C214.439 108.03 218.485 103.818 223.727 100.818C229 97.7879 235.303 96.2727 242.636 96.2727C249.97 96.2727 256.258 97.7879 261.5 100.818C266.773 103.818 270.818 108.03 273.636 113.455C276.485 118.848 277.909 125.136 277.909 132.318C277.909 139.47 276.485 145.758 273.636 151.182C270.818 156.576 266.773 160.788 261.5 163.818C256.258 166.818 249.97 168.318 242.636 168.318ZM242.773 151.545C245.439 151.545 247.697 150.727 249.545 149.091C251.394 147.455 252.803 145.182 253.773 142.273C254.773 139.364 255.273 136 255.273 132.182C255.273 128.303 254.773 124.909 253.773 122C252.803 119.091 251.394 116.818 249.545 115.182C247.697 113.545 245.439 112.727 242.773 112.727C240.015 112.727 237.682 113.545 235.773 115.182C233.894 116.818 232.455 119.091 231.455 122C230.485 124.909 230 128.303 230 132.182C230 136 230.485 139.364 231.455 142.273C232.455 145.182 233.894 147.455 235.773 149.091C237.682 150.727 240.015 151.545 242.773 151.545ZM350.25 118.5L329.841 119.045C329.629 117.591 329.053 116.303 328.114 115.182C327.174 114.03 325.947 113.136 324.432 112.5C322.947 111.833 321.22 111.5 319.25 111.5C316.674 111.5 314.477 112.015 312.659 113.045C310.871 114.076 309.992 115.47 310.023 117.227C309.992 118.591 310.538 119.773 311.659 120.773C312.811 121.773 314.856 122.576 317.795 123.182L331.25 125.727C338.22 127.061 343.402 129.273 346.795 132.364C350.22 135.455 351.947 139.545 351.977 144.636C351.947 149.424 350.523 153.591 347.705 157.136C344.917 160.682 341.098 163.439 336.25 165.409C331.402 167.348 325.856 168.318 319.614 168.318C309.644 168.318 301.78 166.273 296.023 162.182C290.295 158.061 287.023 152.545 286.205 145.636L308.159 145.091C308.644 147.636 309.902 149.576 311.932 150.909C313.962 152.242 316.553 152.909 319.705 152.909C322.553 152.909 324.871 152.379 326.659 151.318C328.447 150.258 329.356 148.848 329.386 147.091C329.356 145.515 328.659 144.258 327.295 143.318C325.932 142.348 323.795 141.591 320.886 141.045L308.705 138.727C301.705 137.455 296.492 135.106 293.068 131.682C289.644 128.227 287.947 123.833 287.977 118.5C287.947 113.833 289.189 109.848 291.705 106.545C294.22 103.212 297.795 100.667 302.432 98.9091C307.068 97.1515 312.538 96.2727 318.841 96.2727C328.295 96.2727 335.75 98.2576 341.205 102.227C346.659 106.167 349.674 111.591 350.25 118.5ZM423.875 118.5L403.466 119.045C403.254 117.591 402.678 116.303 401.739 115.182C400.799 114.03 399.572 113.136 398.057 112.5C396.572 111.833 394.845 111.5 392.875 111.5C390.299 111.5 388.102 112.015 386.284 113.045C384.496 114.076 383.617 115.47 383.648 117.227C383.617 118.591 384.163 119.773 385.284 120.773C386.436 121.773 388.481 122.576 391.42 123.182L404.875 125.727C411.845 127.061 417.027 129.273 420.42 132.364C423.845 135.455 425.572 139.545 425.602 144.636C425.572 149.424 424.148 153.591 421.33 157.136C418.542 160.682 414.723 163.439 409.875 165.409C405.027 167.348 399.481 168.318 393.239 168.318C383.269 168.318 375.405 166.273 369.648 162.182C363.92 158.061 360.648 152.545 359.83 145.636L381.784 145.091C382.269 147.636 383.527 149.576 385.557 150.909C387.587 152.242 390.178 152.909 393.33 152.909C396.178 152.909 398.496 152.379 400.284 151.318C402.072 150.258 402.981 148.848 403.011 147.091C402.981 145.515 402.284 144.258 400.92 143.318C399.557 142.348 397.42 141.591 394.511 141.045L382.33 138.727C375.33 137.455 370.117 135.106 366.693 131.682C363.269 128.227 361.572 123.833 361.602 118.5C361.572 113.833 362.814 109.848 365.33 106.545C367.845 103.212 371.42 100.667 376.057 98.9091C380.693 97.1515 386.163 96.2727 392.466 96.2727C401.92 96.2727 409.375 98.2576 414.83 102.227C420.284 106.167 423.299 111.591 423.875 118.5ZM456.227 168.182C451.773 168.182 447.818 167.439 444.364 165.955C440.939 164.439 438.227 162.167 436.227 159.136C434.258 156.076 433.273 152.242 433.273 147.636C433.273 143.758 433.955 140.485 435.318 137.818C436.682 135.152 438.561 132.985 440.955 131.318C443.348 129.652 446.106 128.394 449.227 127.545C452.348 126.667 455.682 126.076 459.227 125.773C463.197 125.409 466.394 125.03 468.818 124.636C471.242 124.212 473 123.621 474.091 122.864C475.212 122.076 475.773 120.97 475.773 119.545V119.318C475.773 116.985 474.97 115.182 473.364 113.909C471.758 112.636 469.591 112 466.864 112C463.924 112 461.561 112.636 459.773 113.909C457.985 115.182 456.848 116.939 456.364 119.182L435.864 118.455C436.47 114.212 438.03 110.424 440.545 107.091C443.091 103.727 446.576 101.091 451 99.1818C455.455 97.2424 460.803 96.2727 467.045 96.2727C471.5 96.2727 475.606 96.803 479.364 97.8636C483.121 98.8939 486.394 100.409 489.182 102.409C491.97 104.379 494.121 106.803 495.636 109.682C497.182 112.561 497.955 115.848 497.955 119.545V167H477.045V157.273H476.5C475.258 159.636 473.667 161.636 471.727 163.273C469.818 164.909 467.561 166.136 464.955 166.955C462.379 167.773 459.47 168.182 456.227 168.182ZM463.091 153.636C465.485 153.636 467.636 153.152 469.545 152.182C471.485 151.212 473.03 149.879 474.182 148.182C475.333 146.455 475.909 144.455 475.909 142.182V135.545C475.273 135.879 474.5 136.182 473.591 136.455C472.712 136.727 471.742 136.985 470.682 137.227C469.621 137.47 468.53 137.682 467.409 137.864C466.288 138.045 465.212 138.212 464.182 138.364C462.091 138.697 460.303 139.212 458.818 139.909C457.364 140.606 456.242 141.515 455.455 142.636C454.697 143.727 454.318 145.03 454.318 146.545C454.318 148.848 455.136 150.606 456.773 151.818C458.439 153.03 460.545 153.636 463.091 153.636ZM511.545 167V97.1818H532.682V110H533.455C534.909 105.758 537.364 102.409 540.818 99.9545C544.273 97.5 548.394 96.2727 553.182 96.2727C558.03 96.2727 562.182 97.5152 565.636 100C569.091 102.485 571.288 105.818 572.227 110H572.955C574.258 105.848 576.803 102.53 580.591 100.045C584.379 97.5303 588.848 96.2727 594 96.2727C600.606 96.2727 605.97 98.3939 610.091 102.636C614.212 106.848 616.273 112.636 616.273 120V167H594.045V125.091C594.045 121.606 593.152 118.955 591.364 117.136C589.576 115.288 587.258 114.364 584.409 114.364C581.348 114.364 578.939 115.364 577.182 117.364C575.455 119.333 574.591 121.985 574.591 125.318V167H553.227V124.864C553.227 121.621 552.348 119.061 550.591 117.182C548.833 115.303 546.515 114.364 543.636 114.364C541.697 114.364 539.985 114.833 538.5 115.773C537.015 116.682 535.848 117.985 535 119.682C534.182 121.379 533.773 123.379 533.773 125.682V167H511.545ZM662.682 168.318C655.379 168.318 649.076 166.879 643.773 164C638.5 161.091 634.439 156.955 631.591 151.591C628.773 146.197 627.364 139.788 627.364 132.364C627.364 125.152 628.788 118.848 631.636 113.455C634.485 108.03 638.5 103.818 643.682 100.818C648.864 97.7879 654.97 96.2727 662 96.2727C666.97 96.2727 671.515 97.0455 675.636 98.5909C679.758 100.136 683.318 102.424 686.318 105.455C689.318 108.485 691.652 112.227 693.318 116.682C694.985 121.106 695.818 126.182 695.818 131.909V137.455H635.136V124.545H675.136C675.106 122.182 674.545 120.076 673.455 118.227C672.364 116.379 670.864 114.939 668.955 113.909C667.076 112.848 664.909 112.318 662.455 112.318C659.97 112.318 657.742 112.879 655.773 114C653.803 115.091 652.242 116.591 651.091 118.5C649.939 120.379 649.333 122.515 649.273 124.909V138.045C649.273 140.894 649.833 143.394 650.955 145.545C652.076 147.667 653.667 149.318 655.727 150.5C657.788 151.682 660.242 152.273 663.091 152.273C665.061 152.273 666.848 152 668.455 151.455C670.061 150.909 671.439 150.106 672.591 149.045C673.742 147.985 674.606 146.682 675.182 145.136L695.591 145.727C694.742 150.303 692.879 154.288 690 157.682C687.152 161.045 683.409 163.667 678.773 165.545C674.136 167.394 668.773 168.318 662.682 168.318ZM707.17 167V97.1818H728.761V109.909H729.489C730.761 105.303 732.837 101.879 735.716 99.6364C738.595 97.3636 741.943 96.2273 745.761 96.2273C746.792 96.2273 747.852 96.303 748.943 96.4545C750.034 96.5758 751.049 96.7727 751.989 97.0455V116.364C750.928 116 749.534 115.712 747.807 115.5C746.11 115.288 744.595 115.182 743.261 115.182C740.625 115.182 738.246 115.773 736.125 116.955C734.034 118.106 732.383 119.727 731.17 121.818C729.989 123.879 729.398 126.303 729.398 129.091V167H707.17Z" fill="white"/>
<path fill-rule="evenodd" clip-rule="evenodd" d="M236.937 159.152C222.324 207.109 177.737 242 125 242C60.3827 242 8 189.617 8 125C8 60.3827 60.3827 8 125 8C181.802 8 229.149 48.4775 239.772 102.161C240.504 102.055 241.247 102 242 102C244.127 102 246.18 102.437 248.114 103.248C237.82 44.5818 186.616 0 125 0C55.9644 0 0 55.9644 0 125C0 194.036 55.9644 250 125 250C182.002 250 230.093 211.845 245.126 159.681C244.106 159.891 243.062 160 242 160C240.254 160 238.559 159.706 236.937 159.152Z" fill="white"/>
</svg>
