<svg width="500" height="200" viewBox="0 0 771 265" fill="none" xmlns="http://www.w3.org/2000/svg">
<g filter="url(#filter0_d_22_14)">
<path fill-rule="evenodd" clip-rule="evenodd" d="M261.291 168.317C243.674 216.003 197.807 250 144 250C74.9644 250 19 194.036 19 125C19 55.9644 74.9644 0 144 0C203.209 0 252.803 41.1662 265.722 96.4384C271.332 96.9065 276.258 98.3664 280.5 100.818C285.773 103.818 289.818 108.03 292.636 113.455C295.485 118.848 296.909 125.136 296.909 132.318C296.909 139.47 295.485 145.758 292.636 151.182C289.818 156.576 285.773 160.788 280.5 163.818C275.258 166.818 268.97 168.318 261.636 168.318C261.521 168.318 261.406 168.318 261.291 168.317ZM253.026 167.541C236.007 211.124 193.609 242 144 242C79.3827 242 27 189.617 27 125C27 60.3827 79.3827 8 144 8C198.767 8 244.745 45.629 257.49 96.4433C251.899 96.9167 246.978 98.375 242.727 100.818C237.485 103.818 233.439 108.03 230.591 113.455C227.773 118.848 226.364 125.136 226.364 132.318C226.364 139.47 227.773 145.758 230.591 151.182C233.439 156.576 237.485 160.788 242.727 163.818C245.808 165.571 249.241 166.812 253.026 167.541ZM174.303 100.06C173.498 97.0767 172.314 94.4489 170.752 92.1761C169.189 89.8561 167.272 87.8911 164.999 86.2812C162.726 84.6714 160.122 83.464 157.186 82.6591C154.251 81.8068 151.031 81.3807 147.527 81.3807C140.472 81.3807 134.364 83.0852 129.203 86.4943C124.09 89.9034 120.136 94.875 117.343 101.409C114.549 107.896 113.152 115.779 113.152 125.06C113.152 134.387 114.502 142.342 117.201 148.923C119.9 155.505 123.806 160.524 128.919 163.98C134.033 167.437 140.236 169.165 147.527 169.165C153.967 169.165 159.412 168.123 163.863 166.04C168.361 163.909 171.77 160.902 174.09 157.02C176.294 153.331 177.451 149.022 177.561 144.094H148.735V118.455H211.448V137.702C211.448 150.723 208.678 161.873 203.138 171.153C197.646 180.434 190.07 187.56 180.411 192.531C170.799 197.503 159.743 199.989 147.243 199.989C133.37 199.989 121.178 196.982 110.667 190.969C100.155 184.955 91.9639 176.385 86.0927 165.259C80.2215 154.084 77.2859 140.827 77.2859 125.486C77.2859 113.554 79.0614 102.972 82.6126 93.7386C86.1637 84.4583 91.1116 76.5985 97.4563 70.1591C103.848 63.7197 111.235 58.8428 119.615 55.5284C128.043 52.214 137.111 50.5568 146.817 50.5568C155.245 50.5568 163.081 51.7642 170.326 54.179C177.617 56.5938 184.057 60.0028 189.644 64.4062C195.278 68.8097 199.847 74.0417 203.351 80.1023C206.855 86.1629 209.033 92.8153 209.885 100.06H174.303ZM261.773 151.545C264.439 151.545 266.697 150.727 268.545 149.091C270.394 147.455 271.803 145.182 272.773 142.273C273.773 139.364 274.273 136 274.273 132.182C274.273 128.303 273.773 124.909 272.773 122C271.803 119.091 270.394 116.818 268.545 115.182C266.697 113.545 264.439 112.727 261.773 112.727C259.015 112.727 256.682 113.545 254.773 115.182C252.894 116.818 251.455 119.091 250.455 122C249.485 124.909 249 128.303 249 132.182C249 136 249.485 139.364 250.455 142.273C251.455 145.182 252.894 147.455 254.773 149.091C256.682 150.727 259.015 151.545 261.773 151.545ZM369.25 118.5L348.841 119.045C348.629 117.591 348.053 116.303 347.114 115.182C346.174 114.03 344.947 113.136 343.432 112.5C341.947 111.833 340.22 111.5 338.25 111.5C335.674 111.5 333.477 112.015 331.659 113.045C329.871 114.076 328.992 115.47 329.023 117.227C328.992 118.591 329.538 119.773 330.659 120.773C331.811 121.773 333.856 122.576 336.795 123.182L350.25 125.727C357.22 127.061 362.402 129.273 365.795 132.364C369.22 135.455 370.947 139.545 370.977 144.636C370.947 149.424 369.523 153.591 366.705 157.136C363.917 160.682 360.098 163.439 355.25 165.409C350.402 167.348 344.856 168.318 338.614 168.318C328.644 168.318 320.78 166.273 315.023 162.182C309.295 158.061 306.023 152.545 305.205 145.636L327.159 145.091C327.644 147.636 328.902 149.576 330.932 150.909C332.962 152.242 335.553 152.909 338.705 152.909C341.553 152.909 343.871 152.379 345.659 151.318C347.447 150.258 348.356 148.848 348.386 147.091C348.356 145.515 347.659 144.258 346.295 143.318C344.932 142.348 342.795 141.591 339.886 141.045L327.705 138.727C320.705 137.455 315.492 135.106 312.068 131.682C308.644 128.227 306.947 123.833 306.977 118.5C306.947 113.833 308.189 109.848 310.705 106.545C313.22 103.212 316.795 100.667 321.432 98.9091C326.068 97.1515 331.538 96.2727 337.841 96.2727C347.295 96.2727 354.75 98.2576 360.205 102.227C365.659 106.167 368.674 111.591 369.25 118.5ZM442.875 118.5L422.466 119.045C422.254 117.591 421.678 116.303 420.739 115.182C419.799 114.03 418.572 113.136 417.057 112.5C415.572 111.833 413.845 111.5 411.875 111.5C409.299 111.5 407.102 112.015 405.284 113.045C403.496 114.076 402.617 115.47 402.648 117.227C402.617 118.591 403.163 119.773 404.284 120.773C405.436 121.773 407.481 122.576 410.42 123.182L423.875 125.727C430.845 127.061 436.027 129.273 439.42 132.364C442.845 135.455 444.572 139.545 444.602 144.636C444.572 149.424 443.148 153.591 440.33 157.136C437.542 160.682 433.723 163.439 428.875 165.409C424.027 167.348 418.481 168.318 412.239 168.318C402.269 168.318 394.405 166.273 388.648 162.182C382.92 158.061 379.648 152.545 378.83 145.636L400.784 145.091C401.269 147.636 402.527 149.576 404.557 150.909C406.587 152.242 409.178 152.909 412.33 152.909C415.178 152.909 417.496 152.379 419.284 151.318C421.072 150.258 421.981 148.848 422.011 147.091C421.981 145.515 421.284 144.258 419.92 143.318C418.557 142.348 416.42 141.591 413.511 141.045L401.33 138.727C394.33 137.455 389.117 135.106 385.693 131.682C382.269 128.227 380.572 123.833 380.602 118.5C380.572 113.833 381.814 109.848 384.33 106.545C386.845 103.212 390.42 100.667 395.057 98.9091C399.693 97.1515 405.163 96.2727 411.466 96.2727C420.92 96.2727 428.375 98.2576 433.83 102.227C439.284 106.167 442.299 111.591 442.875 118.5ZM475.227 168.182C470.773 168.182 466.818 167.439 463.364 165.955C459.939 164.439 457.227 162.167 455.227 159.136C453.258 156.076 452.273 152.242 452.273 147.636C452.273 143.758 452.955 140.485 454.318 137.818C455.682 135.152 457.561 132.985 459.955 131.318C462.348 129.652 465.106 128.394 468.227 127.545C471.348 126.667 474.682 126.076 478.227 125.773C482.197 125.409 485.394 125.03 487.818 124.636C490.242 124.212 492 123.621 493.091 122.864C494.212 122.076 494.773 120.97 494.773 119.545V119.318C494.773 116.985 493.97 115.182 492.364 113.909C490.758 112.636 488.591 112 485.864 112C482.924 112 480.561 112.636 478.773 113.909C476.985 115.182 475.848 116.939 475.364 119.182L454.864 118.455C455.47 114.212 457.03 110.424 459.545 107.091C462.091 103.727 465.576 101.091 470 99.1818C474.455 97.2424 479.803 96.2727 486.045 96.2727C490.5 96.2727 494.606 96.803 498.364 97.8636C502.121 98.8939 505.394 100.409 508.182 102.409C510.97 104.379 513.121 106.803 514.636 109.682C516.182 112.561 516.955 115.848 516.955 119.545V167H496.045V157.273H495.5C494.258 159.636 492.667 161.636 490.727 163.273C488.818 164.909 486.561 166.136 483.955 166.955C481.379 167.773 478.47 168.182 475.227 168.182ZM482.091 153.636C484.485 153.636 486.636 153.152 488.545 152.182C490.485 151.212 492.03 149.879 493.182 148.182C494.333 146.455 494.909 144.455 494.909 142.182V135.545C494.273 135.879 493.5 136.182 492.591 136.455C491.712 136.727 490.742 136.985 489.682 137.227C488.621 137.47 487.53 137.682 486.409 137.864C485.288 138.045 484.212 138.212 483.182 138.364C481.091 138.697 479.303 139.212 477.818 139.909C476.364 140.606 475.242 141.515 474.455 142.636C473.697 143.727 473.318 145.03 473.318 146.545C473.318 148.848 474.136 150.606 475.773 151.818C477.439 153.03 479.545 153.636 482.091 153.636ZM530.545 167V97.1818H551.682V110H552.455C553.909 105.758 556.364 102.409 559.818 99.9545C563.273 97.5 567.394 96.2727 572.182 96.2727C577.03 96.2727 581.182 97.5152 584.636 100C588.091 102.485 590.288 105.818 591.227 110H591.955C593.258 105.848 595.803 102.53 599.591 100.045C603.379 97.5303 607.849 96.2727 613 96.2727C619.606 96.2727 624.97 98.3939 629.091 102.636C633.212 106.848 635.273 112.636 635.273 120V167H613.045V125.091C613.045 121.606 612.151 118.955 610.364 117.136C608.576 115.288 606.258 114.364 603.409 114.364C600.349 114.364 597.939 115.364 596.182 117.364C594.455 119.333 593.591 121.985 593.591 125.318V167H572.227V124.864C572.227 121.621 571.349 119.061 569.591 117.182C567.833 115.303 565.515 114.364 562.636 114.364C560.697 114.364 558.985 114.833 557.5 115.773C556.015 116.682 554.849 117.985 554 119.682C553.182 121.379 552.773 123.379 552.773 125.682V167H530.545ZM681.682 168.318C674.379 168.318 668.076 166.879 662.773 164C657.5 161.091 653.439 156.955 650.591 151.591C647.773 146.197 646.364 139.788 646.364 132.364C646.364 125.152 647.788 118.848 650.636 113.455C653.485 108.03 657.5 103.818 662.682 100.818C667.864 97.7879 673.97 96.2727 681 96.2727C685.97 96.2727 690.515 97.0455 694.636 98.5909C698.758 100.136 702.318 102.424 705.318 105.455C708.318 108.485 710.651 112.227 712.318 116.682C713.985 121.106 714.818 126.182 714.818 131.909V137.455H668.273V138.045C668.273 140.894 668.833 143.394 669.955 145.545C671.076 147.667 672.667 149.318 674.727 150.5C676.788 151.682 679.242 152.273 682.091 152.273C684.061 152.273 685.849 152 687.455 151.455C689.061 150.909 690.439 150.106 691.591 149.045C692.742 147.985 693.606 146.682 694.182 145.136L714.591 145.727C713.742 150.303 711.879 154.288 709 157.682C706.151 161.045 702.409 163.667 697.773 165.545C693.136 167.394 687.773 168.318 681.682 168.318ZM670.091 118.5C668.998 120.283 668.396 122.298 668.286 124.545H694.136C694.106 122.182 693.545 120.076 692.455 118.227C691.364 116.379 689.864 114.939 687.955 113.909C686.076 112.848 683.909 112.318 681.455 112.318C678.97 112.318 676.742 112.879 674.773 114C672.803 115.091 671.242 116.591 670.091 118.5ZM726.17 167V97.1818H747.761V109.909H748.489C749.761 105.303 751.837 101.879 754.716 99.6364C757.595 97.3636 760.943 96.2273 764.761 96.2273C765.792 96.2273 766.852 96.303 767.943 96.4545C769.034 96.5758 770.049 96.7727 770.989 97.0455V116.364C769.928 116 768.534 115.712 766.807 115.5C765.11 115.288 763.595 115.182 762.261 115.182C759.625 115.182 757.246 115.773 755.125 116.955C753.034 118.106 751.383 119.727 750.17 121.818C748.989 123.879 748.398 126.303 748.398 129.091V167H726.17Z" fill="white"/>
</g>
<defs>
<filter id="filter0_d_22_14" x="0" y="0" width="770.989" height="265" filterUnits="userSpaceOnUse" color-interpolation-filters="sRGB">
<feFlood flood-opacity="0" result="BackgroundImageFix"/>
<feColorMatrix in="SourceAlpha" type="matrix" values="0 0 0 0 0 0 0 0 0 0 0 0 0 0 0 0 0 0 127 0" result="hardAlpha"/>
<feOffset dx="-15" dy="11"/>
<feGaussianBlur stdDeviation="2"/>
<feComposite in2="hardAlpha" operator="out"/>
<feColorMatrix type="matrix" values="0 0 0 0 0 0 0 0 0 0 0 0 0 0 0 0 0 0 0.25 0"/>
<feBlend mode="normal" in2="BackgroundImageFix" result="effect1_dropShadow_22_14"/>
<feBlend mode="normal" in="SourceGraphic" in2="effect1_dropShadow_22_14" result="shape"/>
</filter>
</defs>
</svg>
