<svg width="15" height="16" viewBox="0 0 15 16" fill="none" xmlns="http://www.w3.org/2000/svg">
<path fill-rule="evenodd" clip-rule="evenodd" d="M0.686448 13.7251C0.257152 14.1544 0.257152 14.8505 0.686448 15.2797C1.11574 15.709 1.81177 15.709 2.24107 15.2797L7.63706 9.88379L13.081 15.3277C13.5103 15.7569 14.2063 15.7569 14.6356 15.3277C15.0649 14.8984 15.0649 14.2023 14.6356 13.773L9.19168 8.32918L14.678 2.84289C15.1073 2.41359 15.1073 1.71757 14.678 1.28828C14.2487 0.858985 13.5527 0.858986 13.1234 1.28828L7.63706 6.77457L2.19864 1.33619C1.76935 0.906898 1.07332 0.906898 0.644024 1.33619C0.214728 1.76548 0.214728 2.46151 0.644024 2.8908L6.08244 8.32918L0.686448 13.7251Z" fill="white"/>
</svg>