<svg width="16" height="16" viewBox="0 0 16 16" fill="none" xmlns="http://www.w3.org/2000/svg">
<path fill-rule="evenodd" clip-rule="evenodd" d="M0.768515 12.7484C0.0730446 13.4438 0.0730441 14.5714 0.768514 15.2669C1.46398 15.9623 2.59157 15.9623 3.28704 15.2669L7.74678 10.8071L12.2068 15.2671C12.9022 15.9626 14.0298 15.9626 14.7253 15.2671C15.4208 14.5716 15.4207 13.4441 14.7253 12.7486L10.2653 8.28865L14.7253 3.82867C15.4208 3.13321 15.4208 2.00564 14.7253 1.31017C14.0298 0.614707 12.9023 0.614709 12.2068 1.31017L7.74678 5.77015L3.28701 1.31041C2.59154 0.614946 1.46396 0.614945 0.768488 1.31041C0.0730184 2.00588 0.073021 3.13345 0.768491 3.82891L5.22826 8.28865L0.768515 12.7484Z" fill="white"/>
</svg>
