<svg width="43" height="38" viewBox="0 0 43 38" fill="none" xmlns="http://www.w3.org/2000/svg">
<mask id="path-1-inside-1_28_25" fill="white">
<path fill-rule="evenodd" clip-rule="evenodd" d="M4.25532 20.2381L5.0325 21.0152L5.03249 21.0153L21.5086 37.4914L38.7619 20.2381C43.3117 15.6883 43.3117 8.3117 38.7619 3.76194C34.2122 -0.787819 26.8356 -0.787816 22.2858 3.76194L21.5086 4.53911L20.7315 3.76193C16.1817 -0.787833 8.80508 -0.787834 4.25532 3.76193C-0.294443 8.31169 -0.29444 15.6883 4.25532 20.2381Z"/>
</mask>
<path d="M5.0325 21.0152L8.56804 24.5508L12.1036 21.0152L8.56804 17.4797L5.0325 21.0152ZM5.03249 21.0153L1.49696 17.4797L-2.03857 21.0153L1.49696 24.5508L5.03249 21.0153ZM21.5086 37.4914L17.9731 41.0269L21.5086 44.5625L25.0442 41.0269L21.5086 37.4914ZM21.5086 4.53911L17.9731 8.07464L21.5086 11.6102L25.0442 8.07464L21.5086 4.53911ZM8.56804 17.4797L7.79085 16.7025L0.719786 23.7736L1.49697 24.5508L8.56804 17.4797ZM8.56803 24.5508L8.56804 24.5508L1.49697 17.4797L1.49696 17.4797L8.56803 24.5508ZM25.0442 33.9559L8.56803 17.4797L1.49696 24.5508L17.9731 41.0269L25.0442 33.9559ZM35.2264 16.7025L17.9731 33.9559L25.0442 41.0269L42.2975 23.7736L35.2264 16.7025ZM35.2264 7.29747C37.8235 9.89461 37.8235 14.1054 35.2264 16.7025L42.2975 23.7736C48.7999 17.2712 48.7999 6.72879 42.2975 0.226407L35.2264 7.29747ZM25.8213 7.29748C28.4185 4.70034 32.6293 4.70034 35.2264 7.29747L42.2975 0.226407C35.7951 -6.27598 25.2526 -6.27597 18.7503 0.22641L25.8213 7.29748ZM25.0442 8.07464L25.8213 7.29748L18.7503 0.22641L17.9731 1.00358L25.0442 8.07464ZM17.1959 7.29746L17.9731 8.07464L25.0442 1.00358L24.267 0.226393L17.1959 7.29746ZM7.79085 7.29746C10.388 4.70032 14.5988 4.70032 17.1959 7.29746L24.267 0.226393C17.7646 -6.27599 7.22216 -6.27599 0.719783 0.226392L7.79085 7.29746ZM7.79085 16.7025C5.19371 14.1054 5.19371 9.8946 7.79085 7.29746L0.719783 0.226392C-5.7826 6.72878 -5.78259 17.2712 0.719786 23.7736L7.79085 16.7025Z" fill="black" mask="url(#path-1-inside-1_28_25)"/>
</svg>
