<svg width="30" height="30" viewBox="0 0 40 40" fill="none" xmlns="http://www.w3.org/2000/svg">
<path fill-rule="evenodd" clip-rule="evenodd" d="M26 4H14C8.47715 4 4 8.47715 4 14V26C4 31.5228 8.47715 36 14 36H26C31.5228 36 36 31.5228 36 26V14C36 8.47715 31.5228 4 26 4ZM14 0C6.26801 0 0 6.26801 0 14V26C0 33.732 6.26801 40 14 40H26C33.732 40 40 33.732 40 26V14C40 6.26801 33.732 0 26 0H14ZM20 26C23.3137 26 26 23.3137 26 20C26 16.6863 23.3137 14 20 14C16.6863 14 14 16.6863 14 20C14 23.3137 16.6863 26 20 26ZM20 29C24.9706 29 29 24.9706 29 20C29 15.0294 24.9706 11 20 11C15.0294 11 11 15.0294 11 20C11 24.9706 15.0294 29 20 29ZM28.5 11C29.3284 11 30 10.3284 30 9.5C30 8.67157 29.3284 8 28.5 8C27.6716 8 27 8.67157 27 9.5C27 10.3284 27.6716 11 28.5 11Z" fill="url(#paint0_linear_44_11)"/>
<defs>
<linearGradient id="paint0_linear_44_11" x1="39.4318" y1="-1.4405e-06" x2="0.56816" y2="40" gradientUnits="userSpaceOnUse">
<stop stop-color="#FF0080"/>
<stop offset="1" stop-color="#FFDB00"/>
</linearGradient>
</defs>
</svg>
