<svg width="29" height="25" viewBox="0 0 29 25" fill="none" xmlns="http://www.w3.org/2000/svg">
<rect x="0.46875" y="0.25" width="27.5625" height="24.5" rx="2" fill="white"/>
<rect x="3.53125" y="3.3125" width="21.4375" height="3.0625" rx="1" fill="#6E6E6E"/>
<rect x="3.53125" y="7.90625" width="3.0625" height="3.0625" rx="1" fill="#6E6E6E"/>
<rect x="3.53125" y="12.5" width="3.0625" height="3.0625" rx="1" fill="#6E6E6E"/>
<rect x="3.53125" y="17.0938" width="3.0625" height="3.0625" rx="1" fill="#6E6E6E"/>
<rect x="8.125" y="7.90625" width="3.0625" height="3.0625" rx="1" fill="#6E6E6E"/>
<rect x="8.125" y="12.5" width="3.0625" height="3.0625" rx="1" fill="#6E6E6E"/>
<rect x="8.125" y="17.0938" width="3.0625" height="3.0625" rx="1" fill="#6E6E6E"/>
<rect x="12.7188" y="7.90625" width="3.0625" height="3.0625" rx="1" fill="#6E6E6E"/>
<rect x="12.7188" y="12.5" width="3.0625" height="3.0625" rx="1" fill="#6E6E6E"/>
<rect x="12.7188" y="17.0938" width="3.0625" height="3.0625" rx="1" fill="#6E6E6E"/>
<rect x="17.3125" y="7.90625" width="3.0625" height="3.0625" rx="1" fill="#6E6E6E"/>
<rect x="17.3125" y="12.5" width="3.0625" height="3.0625" rx="1" fill="#6E6E6E"/>
<rect x="17.3125" y="17.0938" width="3.0625" height="3.0625" rx="1" fill="#6E6E6E"/>
<rect x="21.9062" y="7.90625" width="3.0625" height="3.0625" rx="1" fill="#353535"/>
<rect x="21.9062" y="12.5" width="3.0625" height="3.0625" rx="1" fill="#353535"/>
<rect x="21.9062" y="17.0938" width="3.0625" height="3.0625" rx="1" fill="#353535"/>
</svg>
