<svg width="26" height="26" viewBox="0 0 26 26" fill="none" xmlns="http://www.w3.org/2000/svg">
<circle cx="10.601" cy="7.49733" r="6.77858" fill="white"/>
<path d="M4.90538 16.4236C5.75234 14.7297 7.48366 13.6597 9.37752 13.6597H11.8245C13.7183 13.6597 15.4496 14.7297 16.2966 16.4236L19.6298 23.0899C20.2947 24.4197 19.3277 25.9844 17.8409 25.9844H3.36107C1.87431 25.9844 0.907313 24.4197 1.57221 23.0899L4.90538 16.4236Z" fill="white"/>
<circle cx="18.612" cy="12.8984" r="4.78488" fill="#6E6E6E"/>
<path d="M14.2054 19.972C15.0399 18.3029 16.7459 17.2485 18.612 17.2485V17.2485C20.4782 17.2485 22.1841 18.3029 23.0187 19.972L24.5596 23.0539C25.2245 24.3837 24.2576 25.9483 22.7708 25.9483H14.4533C12.9665 25.9483 11.9995 24.3837 12.6644 23.0539L14.2054 19.972Z" fill="#6E6E6E"/>
</svg>
