<svg width="30" height="29" viewBox="0 0 30 29" fill="none" xmlns="http://www.w3.org/2000/svg">
<path d="M13.1812 4.34274C13.3272 3.87459 13.9898 3.87459 14.1359 4.34274L16.2432 11.0987C16.3083 11.3075 16.5017 11.4498 16.7205 11.4498H23.582C24.0614 11.4498 24.266 12.0592 23.8838 12.3485L18.298 16.5758C18.1299 16.7031 18.0597 16.9221 18.1224 17.1234L20.2476 23.9366C20.3925 24.4009 19.8564 24.7777 19.4686 24.4842L13.9603 20.3154C13.7818 20.1804 13.5353 20.1804 13.3568 20.3154L7.84849 24.4842C7.4607 24.7777 6.92462 24.4009 7.06944 23.9366L9.19463 17.1234C9.25742 16.9221 9.18718 16.7031 9.01905 16.5758L3.43333 12.3485C3.05106 12.0592 3.25566 11.4498 3.73506 11.4498H10.5966C10.8154 11.4498 11.0087 11.3075 11.0739 11.0987L13.1812 4.34274Z" fill="white"/>
<path fill-rule="evenodd" clip-rule="evenodd" d="M21.109 27.9111C21.4272 28.2292 21.923 28.2927 22.2968 28.0422C26.397 25.2947 29.0961 20.6188 29.0961 15.3125C29.0961 6.85564 22.2404 0 13.7836 0C8.47724 0 3.80131 2.69909 1.05382 6.79927C0.803357 7.17303 0.86684 7.66889 1.18498 7.98703V7.98703C1.64695 8.449 2.4236 8.33754 2.79281 7.79854C5.19115 4.2972 9.21909 2 13.7836 2C21.1359 2 27.0961 7.96021 27.0961 15.3125C27.0961 19.877 24.7989 23.9049 21.2975 26.3033C20.7585 26.6725 20.6471 27.4491 21.109 27.9111V27.9111Z" fill="white"/>
</svg>
