<svg width="15" height="15" viewBox="0 0 10 12" fill="none" xmlns="http://www.w3.org/2000/svg">
<path fill-rule="evenodd" clip-rule="evenodd" d="M6.8712 0.187904C6.38841 0.28497 5.9623 0.504892 5.60587 0.840959C5.08602 1.33111 4.79605 1.98567 4.79605 2.66905V2.82521L4.99392 2.81426C5.76737 2.7714 6.46683 2.27214 6.84307 1.49436C7.01973 1.12917 7.0896 0.848213 7.10647 0.435087C7.12 0.104575 7.1466 0.132531 6.8712 0.187904ZM6.52375 2.98494C6.28693 3.02921 6.05316 3.10089 5.69369 3.23951C5.03595 3.49316 4.94241 3.51622 4.72552 3.47838C4.65307 3.46573 4.41561 3.38731 4.19785 3.30411C3.4925 3.03465 3.2641 2.9813 2.90005 3.00098C2.02672 3.04817 1.21947 3.51129 0.7373 4.24169C0.528681 4.55771 0.351548 4.95555 0.259198 5.31547C0.0997289 5.93691 0.0827029 6.71516 0.21202 7.47283C0.351954 8.29283 0.659773 9.15663 1.06687 9.87176C1.40502 10.4658 2.01498 11.2288 2.34437 11.4696C2.63469 11.682 2.82823 11.7486 3.14557 11.7454C3.43459 11.7424 3.56105 11.7102 3.99724 11.5287C4.38959 11.3654 4.54543 11.3204 4.8126 11.2931C5.20363 11.2532 5.52715 11.3128 6.00255 11.5123C6.42565 11.6898 6.61533 11.7384 6.88673 11.7386C7.29627 11.7391 7.74127 11.5037 8.09827 11.0976C8.5144 10.6243 9.03667 9.77909 9.28007 9.18496C9.3582 8.99429 9.47087 8.67843 9.4632 8.67176C9.46033 8.66929 9.41013 8.64336 9.3518 8.61416C8.49547 8.18603 7.93533 7.28223 7.93707 6.33121C7.938 5.80041 8.0824 5.32762 8.38313 4.87048C8.51307 4.67297 8.80673 4.36373 8.99387 4.22735C9.0686 4.17289 9.1376 4.12158 9.1472 4.11334C9.1708 4.09312 9.02727 3.90535 8.86027 3.73783C8.51667 3.39325 8.0984 3.15855 7.59513 3.02787C7.39753 2.97658 7.33493 2.96948 7.02567 2.96317C6.77333 2.95801 6.63589 2.96399 6.52375 2.98494Z" fill="black"/>
</svg>
