<svg width="15" height="15" viewBox="0 0 90 91" fill="none" xmlns="http://www.w3.org/2000/svg">
<path d="M89.0942 46.4454C89.0942 43.3491 88.8409 40.2642 88.3114 37.2113H45.4441V54.6982H69.9935C68.9787 60.34 65.7031 65.3309 60.9174 68.4937V79.8543H75.5735C84.1537 71.9646 89.0942 60.2736 89.0942 46.4454Z" fill="#4285F4"/>
<path d="M45.4444 90.8291C57.7085 90.8291 68.042 86.8072 75.5738 79.8653L60.9177 68.5046C56.8371 71.2706 51.5875 72.8462 45.4444 72.8462C33.5894 72.8462 23.5312 64.8582 19.9252 54.1034H4.83875V65.8051C12.5582 81.1548 28.2627 90.8291 45.4444 90.8291Z" fill="#34A853"/>
<path d="M19.9362 54.1031C18.0287 48.4728 18.0287 42.3572 19.9362 36.7162V25.0251H4.83908C-1.61303 37.8614 -1.61303 52.9792 4.83908 65.8162L19.9362 54.1031Z" fill="#FBBC04"/>
<path d="M45.4444 17.9846C51.9293 17.8855 58.1823 20.321 62.8802 24.7946L75.8607 11.8362C67.6338 4.12361 56.7379 -0.118788 45.4444 0.00253211C28.2627 0.00253211 12.5475 9.68756 4.83875 25.0258L19.9359 36.7275C23.5312 25.962 33.5894 17.9846 45.4444 17.9846Z" fill="#EA4335"/>
</svg>
